<svg width="20" height="20" viewBox="0 0 20 20" fill="none" xmlns="http://www.w3.org/2000/svg">
<g clip-path="url(#clip0_2092_39)">
<path d="M11.9525 4.23579C10.922 3.20501 9.55203 2.63745 8.09432 2.63745C6.63688 2.63745 5.26663 3.20501 4.23641 4.23579C2.76631 5.70617 2.31378 7.81329 2.87572 9.67714C2.87853 9.69289 2.88585 9.70695 2.89147 9.72214C3.14516 10.5383 3.5915 11.307 4.23669 11.9522C5.26691 12.9827 6.63716 13.5502 8.0946 13.5502C9.55231 13.5502 10.9223 12.9827 11.9528 11.9522C12.9836 10.9217 13.5511 9.55142 13.5511 8.09426C13.5508 6.63654 12.9833 5.26629 11.9525 4.23579ZM4.62228 4.62139C5.54956 3.69383 6.78285 3.18308 8.0946 3.18308C9.40663 3.18308 10.6396 3.69383 11.5672 4.62139C11.5796 4.63376 11.59 4.64754 11.6021 4.65992L10.3935 5.04073C10.2467 4.84948 10.0183 4.72433 9.75903 4.72433C9.31691 4.72433 8.95691 5.08404 8.95691 5.52645C8.95691 5.77929 9.07672 6.00233 9.25981 6.14942L8.35138 8.62104C8.30356 8.61204 8.25435 8.60614 8.204 8.60614C8.07322 8.60614 7.95172 8.64073 7.8426 8.69614L6.03444 7.1892C6.03528 7.17486 6.03894 7.16108 6.03894 7.14673C6.03894 6.70461 5.67922 6.34461 5.23653 6.34461C4.79385 6.34461 4.43413 6.70433 4.43413 7.14673C4.43413 7.16895 4.43919 7.18976 4.4406 7.21142L3.26497 8.95995C2.99385 7.4322 3.44385 5.79955 4.62228 4.62139ZM9.75903 5.78295C9.61756 5.78295 9.50253 5.66764 9.50253 5.52617C9.50253 5.3847 9.61756 5.26939 9.75903 5.26939C9.90078 5.26939 10.0158 5.38442 10.0158 5.52617C10.0158 5.66792 9.9005 5.78295 9.75903 5.78295ZM8.20372 9.1512C8.24563 9.1512 8.28331 9.16358 8.31819 9.18129C8.3286 9.19114 8.3421 9.19704 8.35391 9.20548C8.41719 9.25245 8.4605 9.32361 8.4605 9.40798C8.4605 9.54945 8.34547 9.66448 8.20372 9.66448C8.06197 9.66448 7.94694 9.54945 7.94694 9.40826C7.94694 9.26651 8.06197 9.1512 8.20372 9.1512ZM4.97975 7.14645C4.97975 7.00498 5.09478 6.88995 5.23653 6.88995C5.37828 6.88995 5.49331 7.00498 5.49331 7.14645C5.49331 7.28792 5.37828 7.40323 5.23653 7.40323C5.09478 7.40323 4.97975 7.2882 4.97975 7.14645ZM11.5669 11.5663C10.6393 12.4939 9.40635 13.0046 8.09432 13.0046C6.78256 13.0046 5.54928 12.4939 4.622 11.5663C4.06963 11.0139 3.68178 10.3603 3.44835 9.66589L4.72803 7.76183C4.86669 7.87686 5.04247 7.94886 5.23653 7.94886C5.45956 7.94886 5.66122 7.85717 5.80663 7.70979L7.46628 9.09298C7.42494 9.18973 7.4016 9.29633 7.4016 9.40826C7.4016 9.85039 7.76131 10.2104 8.20372 10.2104C8.64613 10.2104 9.00613 9.85067 9.00613 9.40826C9.00613 9.21842 8.93722 9.0463 8.82641 8.90876L9.77563 6.32689C10.1983 6.31817 10.5395 5.98123 10.5575 5.56104L11.9891 5.1102C12.6455 5.96323 13.0052 6.99992 13.0052 8.09398C13.0055 9.40545 12.4945 10.6387 11.5669 11.5663Z" fill="white"/>
<path d="M18.1263 15.4399L14.1145 11.8444C15.523 9.58347 15.5396 6.69728 14.1638 4.42225L16.4079 3.71491L16.236 4.01781C16.1618 4.14887 16.2079 4.31538 16.3389 4.38963C16.3811 4.41353 16.4275 4.42506 16.4734 4.42506C16.5684 4.42506 16.6604 4.37528 16.7108 4.28669L17.226 3.37853C17.2294 3.37262 17.2294 3.36559 17.2319 3.35941C17.2387 3.34506 17.242 3.33016 17.2463 3.31497C17.2519 3.29472 17.2572 3.27503 17.2578 3.25422C17.2584 3.24213 17.2555 3.23088 17.2541 3.21906C17.2524 3.19994 17.2544 3.18081 17.2482 3.16225C17.2465 3.15634 17.242 3.15241 17.2398 3.14678C17.2375 3.14144 17.2339 3.13722 17.2314 3.13188C17.2181 3.10291 17.2021 3.07647 17.1793 3.05425C17.179 3.05397 17.179 3.05369 17.1788 3.05341C17.1689 3.04328 17.1571 3.03709 17.1461 3.02894C17.1321 3.01881 17.1211 3.00559 17.1054 2.998L16.162 2.55053C16.0256 2.48584 15.8631 2.54406 15.7987 2.67991C15.7343 2.81603 15.7922 2.97859 15.9283 3.04328L16.2464 3.19431L13.851 3.94919C13.6311 3.64431 13.3853 3.35238 13.111 3.07816C11.7709 1.738 9.98973 1 8.09494 1C6.1996 1 4.41845 1.738 3.07857 3.07787C1.7387 4.41775 1.00098 6.19919 1.00098 8.09397C1.00098 9.21306 1.26029 10.2917 1.74685 11.2639L1.1447 12.0554C1.05357 12.1752 1.07663 12.3465 1.19673 12.4376C1.24595 12.4753 1.30388 12.4933 1.36154 12.4933C1.44366 12.4933 1.52523 12.4562 1.57866 12.3856L2.03513 11.7857C2.32595 12.261 2.67413 12.7059 3.07829 13.1098C4.46148 14.4927 6.27807 15.184 8.09466 15.184C9.39882 15.184 10.7021 14.8257 11.8457 14.113L15.4432 18.1245C15.9311 18.6715 16.5265 18.982 17.1191 18.9986C17.136 18.9997 17.1526 19 17.1689 19C17.6411 19 18.081 18.809 18.4441 18.4457C18.821 18.0691 19.0125 17.6089 18.9987 17.1162C18.9819 16.5219 18.6716 15.9265 18.1263 15.4399ZM3.46445 12.7245C2.99813 12.2582 2.61113 11.7342 2.30963 11.1683C2.30654 11.1624 2.30429 11.1565 2.30091 11.1506C1.80845 10.2197 1.5466 9.17706 1.5466 8.09425C1.5466 6.34516 2.22751 4.70069 3.46445 3.46375C4.7011 2.22709 6.34585 1.54591 8.09494 1.54591C9.84404 1.54591 11.4885 2.22709 12.7254 3.46375C15.2784 6.01694 15.2784 10.1713 12.7254 12.7247C10.1714 15.2774 6.01735 15.2774 3.46445 12.7245ZM18.0585 18.0601C17.7877 18.3309 17.4822 18.4662 17.1346 18.4538C16.7001 18.4414 16.2318 18.1892 15.8496 17.7611L12.3024 13.8056C12.5848 13.5972 12.8554 13.3657 13.111 13.1098C13.3667 12.8538 13.5984 12.5833 13.8071 12.3006L17.7629 15.8463C18.1896 16.2269 18.4413 16.6954 18.4534 17.1317C18.4632 17.4759 18.3302 17.7881 18.0585 18.0601Z" fill="white"/>
</g>
<defs>
<clipPath id="clip0_2092_39">
<rect width="18" height="18" fill="white" transform="translate(1 1)"/>
</clipPath>
</defs>
</svg>
